<?xml version="1.0" encoding="UTF-8" standalone="no"?><svg xmlns="http://www.w3.org/2000/svg" xmlns:xlink="http://www.w3.org/1999/xlink" contentScriptType="application/ecmascript" contentStyleType="text/css" height="713px" preserveAspectRatio="none" style="width:560px;height:713px;" version="1.1" viewBox="0 0 560 713" width="560px" zoomAndPan="magnify"><defs><filter height="300%" id="f1ukospnlszvdc" width="300%" x="-1" y="-1"><feGaussianBlur result="blurOut" stdDeviation="2.0"/><feColorMatrix in="blurOut" result="blurOut2" type="matrix" values="0 0 0 0 0 0 0 0 0 0 0 0 0 0 0 0 0 0 .4 0"/><feOffset dx="4.0" dy="4.0" in="blurOut2" result="blurOut3"/><feBlend in="SourceGraphic" in2="blurOut3" mode="normal"/></filter></defs><g><text fill="#000000" font-family="sans-serif" font-size="18" lengthAdjust="spacing" textLength="379" x="88.75" y="28.708">Change VOS from prescription on dispense</text><rect fill="#FFFFFF" filter="url(#f1ukospnlszvdc)" height="61.3984" style="stroke:#000000;stroke-width:2.0;" width="259.5" x="80" y="140.25"/><rect fill="#FFFFFF" filter="url(#f1ukospnlszvdc)" height="131.6641" style="stroke:#000000;stroke-width:2.0;" width="226" x="267.5" y="215.6484"/><rect fill="#FFFFFF" filter="url(#f1ukospnlszvdc)" height="105.6641" style="stroke:#000000;stroke-width:2.0;" width="279" x="267.5" y="361.3125"/><rect fill="#FFFFFF" filter="url(#f1ukospnlszvdc)" height="131.6641" style="stroke:#000000;stroke-width:2.0;" width="226" x="267.5" y="480.9766"/><line style="stroke:#A80036;stroke-width:1.0;stroke-dasharray:5.0,5.0;" x1="42" x2="42" y1="123.25" y2="629.6406"/><line style="stroke:#A80036;stroke-width:1.0;stroke-dasharray:5.0,5.0;" x1="128" x2="128" y1="123.25" y2="629.6406"/><line style="stroke:#A80036;stroke-width:1.0;stroke-dasharray:5.0,5.0;" x1="303.5" x2="303.5" y1="123.25" y2="629.6406"/><line style="stroke:#A80036;stroke-width:1.0;stroke-dasharray:5.0,5.0;" x1="495.5" x2="495.5" y1="123.25" y2="629.6406"/><text fill="#000000" font-family="sans-serif" font-size="14" lengthAdjust="spacing" textLength="69" x="5" y="119.9482">Pia Peters</text><ellipse cx="42.5" cy="49.9531" fill="#FEFECE" filter="url(#f1ukospnlszvdc)" rx="8" ry="8" style="stroke:#A80036;stroke-width:2.0;"/><path d="M42.5,57.9531 L42.5,84.9531 M29.5,65.9531 L55.5,65.9531 M42.5,84.9531 L29.5,99.9531 M42.5,84.9531 L55.5,99.9531 " fill="none" filter="url(#f1ukospnlszvdc)" style="stroke:#A80036;stroke-width:2.0;"/><text fill="#000000" font-family="sans-serif" font-size="14" lengthAdjust="spacing" textLength="69" x="5" y="641.6357">Pia Peters</text><ellipse cx="42.5" cy="654.9375" fill="#FEFECE" filter="url(#f1ukospnlszvdc)" rx="8" ry="8" style="stroke:#A80036;stroke-width:2.0;"/><path d="M42.5,662.9375 L42.5,689.9375 M29.5,670.9375 L55.5,670.9375 M42.5,689.9375 L29.5,704.9375 M42.5,689.9375 L55.5,704.9375 " fill="none" filter="url(#f1ukospnlszvdc)" style="stroke:#A80036;stroke-width:2.0;"/><text fill="#000000" font-family="sans-serif" font-size="14" lengthAdjust="spacing" textLength="71" x="90" y="119.9482">Dr. Durant</text><ellipse cx="128.5" cy="49.9531" fill="#FEFECE" filter="url(#f1ukospnlszvdc)" rx="8" ry="8" style="stroke:#A80036;stroke-width:2.0;"/><path d="M128.5,57.9531 L128.5,84.9531 M115.5,65.9531 L141.5,65.9531 M128.5,84.9531 L115.5,99.9531 M128.5,84.9531 L141.5,99.9531 " fill="none" filter="url(#f1ukospnlszvdc)" style="stroke:#A80036;stroke-width:2.0;"/><text fill="#000000" font-family="sans-serif" font-size="14" lengthAdjust="spacing" textLength="71" x="90" y="641.6357">Dr. Durant</text><ellipse cx="128.5" cy="654.9375" fill="#FEFECE" filter="url(#f1ukospnlszvdc)" rx="8" ry="8" style="stroke:#A80036;stroke-width:2.0;"/><path d="M128.5,662.9375 L128.5,689.9375 M115.5,670.9375 L141.5,670.9375 M128.5,689.9375 L115.5,704.9375 M128.5,689.9375 L141.5,704.9375 " fill="none" filter="url(#f1ukospnlszvdc)" style="stroke:#A80036;stroke-width:2.0;"/><rect fill="#FEFECE" filter="url(#f1ukospnlszvdc)" height="30.2969" style="stroke:#A80036;stroke-width:1.5;" width="48" x="277.5" y="87.9531"/><text fill="#000000" font-family="sans-serif" font-size="14" lengthAdjust="spacing" textLength="34" x="284.5" y="107.9482">Vault</text><rect fill="#FEFECE" filter="url(#f1ukospnlszvdc)" height="30.2969" style="stroke:#A80036;stroke-width:1.5;" width="48" x="277.5" y="628.6406"/><text fill="#000000" font-family="sans-serif" font-size="14" lengthAdjust="spacing" textLength="34" x="284.5" y="648.6357">Vault</text><text fill="#000000" font-family="sans-serif" font-size="14" lengthAdjust="spacing" textLength="76" x="454.5" y="119.9482">Pharmacist</text><ellipse cx="495.5" cy="49.9531" fill="#FEFECE" filter="url(#f1ukospnlszvdc)" rx="8" ry="8" style="stroke:#A80036;stroke-width:2.0;"/><path d="M495.5,57.9531 L495.5,84.9531 M482.5,65.9531 L508.5,65.9531 M495.5,84.9531 L482.5,99.9531 M495.5,84.9531 L508.5,99.9531 " fill="none" filter="url(#f1ukospnlszvdc)" style="stroke:#A80036;stroke-width:2.0;"/><text fill="#000000" font-family="sans-serif" font-size="14" lengthAdjust="spacing" textLength="76" x="454.5" y="641.6357">Pharmacist</text><ellipse cx="495.5" cy="654.9375" fill="#FEFECE" filter="url(#f1ukospnlszvdc)" rx="8" ry="8" style="stroke:#A80036;stroke-width:2.0;"/><path d="M495.5,662.9375 L495.5,689.9375 M482.5,670.9375 L508.5,670.9375 M495.5,689.9375 L482.5,704.9375 M495.5,689.9375 L508.5,704.9375 " fill="none" filter="url(#f1ukospnlszvdc)" style="stroke:#A80036;stroke-width:2.0;"/><path d="M80,140.25 L183,140.25 L183,147.25 L173,157.25 L80,157.25 L80,140.25 " fill="#EEEEEE" style="stroke:#000000;stroke-width:1.0;"/><rect fill="none" height="61.3984" style="stroke:#000000;stroke-width:2.0;" width="259.5" x="80" y="140.25"/><text fill="#000000" font-family="sans-serif" font-size="13" font-weight="bold" lengthAdjust="spacing" textLength="58" x="95" y="153.3169">group 1</text><polygon fill="#A80036" points="291.5,189.6484,301.5,193.6484,291.5,197.6484,295.5,193.6484" style="stroke:#A80036;stroke-width:1.0;"/><line style="stroke:#A80036;stroke-width:1.0;" x1="128.5" x2="297.5" y1="193.6484" y2="193.6484"/><text fill="#000000" font-family="sans-serif" font-size="13" lengthAdjust="spacing" textLength="151" x="135.5" y="173.4497">Create new prescription</text><a href="ExampleScenario-example-2-scenario-resources.html#2a-prescription" target="_top" title="ExampleScenario-example-2-scenario-resources.html#2a-prescription" xlink:actuate="onRequest" xlink:href="ExampleScenario-example-2-scenario-resources.html#2a-prescription" xlink:show="new" xlink:title="ExampleScenario-example-2-scenario-resources.html#2a-prescription" xlink:type="simple"><text fill="#0000FF" font-family="sans-serif" font-size="13" lengthAdjust="spacing" text-decoration="underline" textLength="106" x="135.5" y="188.5825">New Prescription</text></a><path d="M267.5,215.6484 L370.5,215.6484 L370.5,222.6484 L360.5,232.6484 L267.5,232.6484 L267.5,215.6484 " fill="#EEEEEE" style="stroke:#000000;stroke-width:1.0;"/><rect fill="none" height="131.6641" style="stroke:#000000;stroke-width:2.0;" width="226" x="267.5" y="215.6484"/><text fill="#000000" font-family="sans-serif" font-size="13" font-weight="bold" lengthAdjust="spacing" textLength="58" x="282.5" y="228.7153">group 2</text><line style="stroke:#A80036;stroke-width:1.0;" x1="303.5" x2="345.5" y1="269.0469" y2="269.0469"/><line style="stroke:#A80036;stroke-width:1.0;" x1="345.5" x2="345.5" y1="269.0469" y2="282.0469"/><line style="stroke:#A80036;stroke-width:1.0;" x1="304.5" x2="345.5" y1="282.0469" y2="282.0469"/><polygon fill="#A80036" points="314.5,278.0469,304.5,282.0469,314.5,286.0469,310.5,282.0469" style="stroke:#A80036;stroke-width:1.0;"/><text fill="#000000" font-family="sans-serif" font-size="13" lengthAdjust="spacing" textLength="141" x="310.5" y="248.8481">Create new treatment</text><a href="ExampleScenario-example-2-scenario-resources.html#2a-treatment" target="_top" title="ExampleScenario-example-2-scenario-resources.html#2a-treatment" xlink:actuate="onRequest" xlink:href="ExampleScenario-example-2-scenario-resources.html#2a-treatment" xlink:show="new" xlink:title="ExampleScenario-example-2-scenario-resources.html#2a-treatment" xlink:type="simple"><text fill="#0000FF" font-family="sans-serif" font-size="13" lengthAdjust="spacing" text-decoration="underline" textLength="98" x="310.5" y="263.981">New Treatment</text></a><line style="stroke:#A80036;stroke-width:1.0;" x1="303.5" x2="345.5" y1="326.3125" y2="326.3125"/><line style="stroke:#A80036;stroke-width:1.0;" x1="345.5" x2="345.5" y1="326.3125" y2="339.3125"/><line style="stroke:#A80036;stroke-width:1.0;" x1="304.5" x2="345.5" y1="339.3125" y2="339.3125"/><polygon fill="#A80036" points="314.5,335.3125,304.5,339.3125,314.5,343.3125,310.5,339.3125" style="stroke:#A80036;stroke-width:1.0;"/><text fill="#000000" font-family="sans-serif" font-size="13" lengthAdjust="spacing" textLength="171" x="310.5" y="306.1138">Create new treatment Line</text><a href="ExampleScenario-example-2-scenario-resources.html#2a-treatmentLine" target="_top" title="ExampleScenario-example-2-scenario-resources.html#2a-treatmentLine" xlink:actuate="onRequest" xlink:href="ExampleScenario-example-2-scenario-resources.html#2a-treatmentLine" xlink:show="new" xlink:title="ExampleScenario-example-2-scenario-resources.html#2a-treatmentLine" xlink:type="simple"><text fill="#0000FF" font-family="sans-serif" font-size="13" lengthAdjust="spacing" text-decoration="underline" textLength="128" x="310.5" y="321.2466">New Treatment Line</text></a><path d="M267.5,361.3125 L370.5,361.3125 L370.5,368.3125 L360.5,378.3125 L267.5,378.3125 L267.5,361.3125 " fill="#EEEEEE" style="stroke:#000000;stroke-width:1.0;"/><rect fill="none" height="105.6641" style="stroke:#000000;stroke-width:2.0;" width="279" x="267.5" y="361.3125"/><text fill="#000000" font-family="sans-serif" font-size="13" font-weight="bold" lengthAdjust="spacing" textLength="58" x="282.5" y="374.3794">group 3</text><polygon fill="#A80036" points="314.5,410.7109,304.5,414.7109,314.5,418.7109,310.5,414.7109" style="stroke:#A80036;stroke-width:1.0;"/><line style="stroke:#A80036;stroke-width:1.0;" x1="308.5" x2="494.5" y1="414.7109" y2="414.7109"/><text fill="#000000" font-family="sans-serif" font-size="13" lengthAdjust="spacing" textLength="168" x="320.5" y="394.5122">Get patient's Prescriptions</text><a href="ExampleScenario-example-2-scenario-resources.html#EB" target="_top" title="ExampleScenario-example-2-scenario-resources.html#EB" xlink:actuate="onRequest" xlink:href="ExampleScenario-example-2-scenario-resources.html#EB" xlink:show="new" xlink:title="ExampleScenario-example-2-scenario-resources.html#EB" xlink:type="simple"><text fill="#0000FF" font-family="sans-serif" font-size="13" lengthAdjust="spacing" text-decoration="underline" textLength="89" x="320.5" y="409.645">Empty Bundle</text></a><polygon fill="#A80036" points="314.5,454.9766,304.5,458.9766,314.5,462.9766,310.5,458.9766" style="stroke:#A80036;stroke-width:1.0;"/><line style="stroke:#A80036;stroke-width:1.0;" x1="308.5" x2="494.5" y1="458.9766" y2="458.9766"/><text fill="#000000" font-family="sans-serif" font-size="13" lengthAdjust="spacing" textLength="133" x="320.5" y="438.7778">Create new dispense</text><a href="ExampleScenario-example-2-scenario-resources.html#2a-dispense" target="_top" title="ExampleScenario-example-2-scenario-resources.html#2a-dispense" xlink:actuate="onRequest" xlink:href="ExampleScenario-example-2-scenario-resources.html#2a-dispense" xlink:show="new" xlink:title="ExampleScenario-example-2-scenario-resources.html#2a-dispense" xlink:type="simple"><text fill="#0000FF" font-family="sans-serif" font-size="13" lengthAdjust="spacing" text-decoration="underline" textLength="88" x="320.5" y="453.9106">New dispense</text></a><path d="M267.5,480.9766 L370.5,480.9766 L370.5,487.9766 L360.5,497.9766 L267.5,497.9766 L267.5,480.9766 " fill="#EEEEEE" style="stroke:#000000;stroke-width:1.0;"/><rect fill="none" height="131.6641" style="stroke:#000000;stroke-width:2.0;" width="226" x="267.5" y="480.9766"/><text fill="#000000" font-family="sans-serif" font-size="13" font-weight="bold" lengthAdjust="spacing" textLength="58" x="282.5" y="494.0435">group 4</text><line style="stroke:#A80036;stroke-width:1.0;" x1="303.5" x2="345.5" y1="534.375" y2="534.375"/><line style="stroke:#A80036;stroke-width:1.0;" x1="345.5" x2="345.5" y1="534.375" y2="547.375"/><line style="stroke:#A80036;stroke-width:1.0;" x1="304.5" x2="345.5" y1="547.375" y2="547.375"/><polygon fill="#A80036" points="314.5,543.375,304.5,547.375,314.5,551.375,310.5,547.375" style="stroke:#A80036;stroke-width:1.0;"/><text fill="#000000" font-family="sans-serif" font-size="13" lengthAdjust="spacing" textLength="141" x="310.5" y="514.1763">Create new treatment</text><a href="ExampleScenario-example-2-scenario-resources.html#2a-treatment" target="_top" title="ExampleScenario-example-2-scenario-resources.html#2a-treatment" xlink:actuate="onRequest" xlink:href="ExampleScenario-example-2-scenario-resources.html#2a-treatment" xlink:show="new" xlink:title="ExampleScenario-example-2-scenario-resources.html#2a-treatment" xlink:type="simple"><text fill="#0000FF" font-family="sans-serif" font-size="13" lengthAdjust="spacing" text-decoration="underline" textLength="98" x="310.5" y="529.3091">New Treatment</text></a><line style="stroke:#A80036;stroke-width:1.0;" x1="303.5" x2="345.5" y1="591.6406" y2="591.6406"/><line style="stroke:#A80036;stroke-width:1.0;" x1="345.5" x2="345.5" y1="591.6406" y2="604.6406"/><line style="stroke:#A80036;stroke-width:1.0;" x1="304.5" x2="345.5" y1="604.6406" y2="604.6406"/><polygon fill="#A80036" points="314.5,600.6406,304.5,604.6406,314.5,608.6406,310.5,604.6406" style="stroke:#A80036;stroke-width:1.0;"/><text fill="#000000" font-family="sans-serif" font-size="13" lengthAdjust="spacing" textLength="171" x="310.5" y="571.4419">Create new treatment Line</text><a href="ExampleScenario-example-2-scenario-resources.html#2a-treatmentLine" target="_top" title="ExampleScenario-example-2-scenario-resources.html#2a-treatmentLine" xlink:actuate="onRequest" xlink:href="ExampleScenario-example-2-scenario-resources.html#2a-treatmentLine" xlink:show="new" xlink:title="ExampleScenario-example-2-scenario-resources.html#2a-treatmentLine" xlink:type="simple"><text fill="#0000FF" font-family="sans-serif" font-size="13" lengthAdjust="spacing" text-decoration="underline" textLength="128" x="310.5" y="586.5747">New Treatment Line</text></a><!--MD5=[5e2701cb80fc2baf8ec3e0eedc109e55]
@startuml


Title Change VOS from prescription on dispense

actor "Pia Peters" as PATIENT
actor "Dr. Durant" as GP
participant "Vault" as VAULT
actor "Pharmacist" as PHARM

    
    
    
    
    
group group 1

GP -> VAULT : Create new prescription\n[[ExampleScenario-example-2-scenario-resources.html#2a-prescription New Prescription]]
end
group group 2

VAULT -> VAULT : Create new treatment\n[[ExampleScenario-example-2-scenario-resources.html#2a-treatment New Treatment]]
VAULT -> VAULT : Create new treatment Line\n[[ExampleScenario-example-2-scenario-resources.html#2a-treatmentLine New Treatment Line]]
end
    
group group 3

PHARM -> VAULT : Get patient's Prescriptions\n[[ExampleScenario-example-2-scenario-resources.html#EB Empty Bundle]]
PHARM -> VAULT : Create new dispense\n[[ExampleScenario-example-2-scenario-resources.html#2a-dispense New dispense]]
end
    
group group 4

VAULT -> VAULT : Create new treatment\n[[ExampleScenario-example-2-scenario-resources.html#2a-treatment New Treatment]]
VAULT -> VAULT : Create new treatment Line\n[[ExampleScenario-example-2-scenario-resources.html#2a-treatmentLine New Treatment Line]]
end
  

@enduml

PlantUML version 1.2021.00(Sun Jan 10 10:25:05 UTC 2021)
(APACHE source distribution)
Java Runtime: OpenJDK Runtime Environment
JVM: OpenJDK 64-Bit Server VM
Default Encoding: UTF-8
Language: en
Country: null
--></g></svg>