<?xml version="1.0" encoding="UTF-8" standalone="no"?><svg xmlns="http://www.w3.org/2000/svg" xmlns:xlink="http://www.w3.org/1999/xlink" contentScriptType="application/ecmascript" contentStyleType="text/css" height="742px" preserveAspectRatio="none" style="width:1039px;height:742px;" version="1.1" viewBox="0 0 1039 742" width="1039px" zoomAndPan="magnify"><defs><filter height="300%" id="fun41xkvfk309" width="300%" x="-1" y="-1"><feGaussianBlur result="blurOut" stdDeviation="2.0"/><feColorMatrix in="blurOut" result="blurOut2" type="matrix" values="0 0 0 0 0 0 0 0 0 0 0 0 0 0 0 0 0 0 .4 0"/><feOffset dx="4.0" dy="4.0" in="blurOut2" result="blurOut3"/><feBlend in="SourceGraphic" in2="blurOut3" mode="normal"/></filter></defs><g><text fill="#000000" font-family="sans-serif" font-size="18" lengthAdjust="spacing" textLength="602" x="220.75" y="28.708">Change brand from prescription on dispense because of out of stock</text><line style="stroke:#A80036;stroke-width:1.0;stroke-dasharray:5.0,5.0;" x1="42" x2="42" y1="123.25" y2="658.4375"/><line style="stroke:#A80036;stroke-width:1.0;stroke-dasharray:5.0,5.0;" x1="202" x2="202" y1="123.25" y2="658.4375"/><line style="stroke:#A80036;stroke-width:1.0;stroke-dasharray:5.0,5.0;" x1="274" x2="274" y1="123.25" y2="658.4375"/><line style="stroke:#A80036;stroke-width:1.0;stroke-dasharray:5.0,5.0;" x1="618.5" x2="618.5" y1="123.25" y2="658.4375"/><line style="stroke:#A80036;stroke-width:1.0;stroke-dasharray:5.0,5.0;" x1="997.5" x2="997.5" y1="123.25" y2="658.4375"/><text fill="#000000" font-family="sans-serif" font-size="14" lengthAdjust="spacing" textLength="69" x="5" y="119.9482">Pia Peters</text><ellipse cx="42.5" cy="49.9531" fill="#FEFECE" filter="url(#fun41xkvfk309)" rx="8" ry="8" style="stroke:#A80036;stroke-width:2.0;"/><path d="M42.5,57.9531 L42.5,84.9531 M29.5,65.9531 L55.5,65.9531 M42.5,84.9531 L29.5,99.9531 M42.5,84.9531 L55.5,99.9531 " fill="none" filter="url(#fun41xkvfk309)" style="stroke:#A80036;stroke-width:2.0;"/><text fill="#000000" font-family="sans-serif" font-size="14" lengthAdjust="spacing" textLength="69" x="5" y="670.4326">Pia Peters</text><ellipse cx="42.5" cy="683.7344" fill="#FEFECE" filter="url(#fun41xkvfk309)" rx="8" ry="8" style="stroke:#A80036;stroke-width:2.0;"/><path d="M42.5,691.7344 L42.5,718.7344 M29.5,699.7344 L55.5,699.7344 M42.5,718.7344 L29.5,733.7344 M42.5,718.7344 L55.5,733.7344 " fill="none" filter="url(#fun41xkvfk309)" style="stroke:#A80036;stroke-width:2.0;"/><text fill="#000000" font-family="sans-serif" font-size="14" lengthAdjust="spacing" textLength="71" x="164" y="119.9482">Dr. Durant</text><ellipse cx="202.5" cy="49.9531" fill="#FEFECE" filter="url(#fun41xkvfk309)" rx="8" ry="8" style="stroke:#A80036;stroke-width:2.0;"/><path d="M202.5,57.9531 L202.5,84.9531 M189.5,65.9531 L215.5,65.9531 M202.5,84.9531 L189.5,99.9531 M202.5,84.9531 L215.5,99.9531 " fill="none" filter="url(#fun41xkvfk309)" style="stroke:#A80036;stroke-width:2.0;"/><text fill="#000000" font-family="sans-serif" font-size="14" lengthAdjust="spacing" textLength="71" x="164" y="670.4326">Dr. Durant</text><ellipse cx="202.5" cy="683.7344" fill="#FEFECE" filter="url(#fun41xkvfk309)" rx="8" ry="8" style="stroke:#A80036;stroke-width:2.0;"/><path d="M202.5,691.7344 L202.5,718.7344 M189.5,699.7344 L215.5,699.7344 M202.5,718.7344 L189.5,733.7344 M202.5,718.7344 L215.5,733.7344 " fill="none" filter="url(#fun41xkvfk309)" style="stroke:#A80036;stroke-width:2.0;"/><text fill="#000000" font-family="sans-serif" font-size="14" lengthAdjust="spacing" textLength="41" x="251" y="119.9482">Nurse</text><ellipse cx="274.5" cy="49.9531" fill="#FEFECE" filter="url(#fun41xkvfk309)" rx="8" ry="8" style="stroke:#A80036;stroke-width:2.0;"/><path d="M274.5,57.9531 L274.5,84.9531 M261.5,65.9531 L287.5,65.9531 M274.5,84.9531 L261.5,99.9531 M274.5,84.9531 L287.5,99.9531 " fill="none" filter="url(#fun41xkvfk309)" style="stroke:#A80036;stroke-width:2.0;"/><text fill="#000000" font-family="sans-serif" font-size="14" lengthAdjust="spacing" textLength="41" x="251" y="670.4326">Nurse</text><ellipse cx="274.5" cy="683.7344" fill="#FEFECE" filter="url(#fun41xkvfk309)" rx="8" ry="8" style="stroke:#A80036;stroke-width:2.0;"/><path d="M274.5,691.7344 L274.5,718.7344 M261.5,699.7344 L287.5,699.7344 M274.5,718.7344 L261.5,733.7344 M274.5,718.7344 L287.5,733.7344 " fill="none" filter="url(#fun41xkvfk309)" style="stroke:#A80036;stroke-width:2.0;"/><rect fill="#FEFECE" filter="url(#fun41xkvfk309)" height="30.2969" style="stroke:#A80036;stroke-width:1.5;" width="48" x="592.5" y="87.9531"/><text fill="#000000" font-family="sans-serif" font-size="14" lengthAdjust="spacing" textLength="34" x="599.5" y="107.9482">Vault</text><rect fill="#FEFECE" filter="url(#fun41xkvfk309)" height="30.2969" style="stroke:#A80036;stroke-width:1.5;" width="48" x="592.5" y="657.4375"/><text fill="#000000" font-family="sans-serif" font-size="14" lengthAdjust="spacing" textLength="34" x="599.5" y="677.4326">Vault</text><text fill="#000000" font-family="sans-serif" font-size="14" lengthAdjust="spacing" textLength="76" x="956.5" y="119.9482">Pharmacist</text><ellipse cx="997.5" cy="49.9531" fill="#FEFECE" filter="url(#fun41xkvfk309)" rx="8" ry="8" style="stroke:#A80036;stroke-width:2.0;"/><path d="M997.5,57.9531 L997.5,84.9531 M984.5,65.9531 L1010.5,65.9531 M997.5,84.9531 L984.5,99.9531 M997.5,84.9531 L1010.5,99.9531 " fill="none" filter="url(#fun41xkvfk309)" style="stroke:#A80036;stroke-width:2.0;"/><text fill="#000000" font-family="sans-serif" font-size="14" lengthAdjust="spacing" textLength="76" x="956.5" y="670.4326">Pharmacist</text><ellipse cx="997.5" cy="683.7344" fill="#FEFECE" filter="url(#fun41xkvfk309)" rx="8" ry="8" style="stroke:#A80036;stroke-width:2.0;"/><path d="M997.5,691.7344 L997.5,718.7344 M984.5,699.7344 L1010.5,699.7344 M997.5,718.7344 L984.5,733.7344 M997.5,718.7344 L1010.5,733.7344 " fill="none" filter="url(#fun41xkvfk309)" style="stroke:#A80036;stroke-width:2.0;"/><polygon fill="#A80036" points="190.5,165.5156,200.5,169.5156,190.5,173.5156,194.5,169.5156" style="stroke:#A80036;stroke-width:1.0;"/><line style="stroke:#A80036;stroke-width:1.0;" x1="42.5" x2="196.5" y1="169.5156" y2="169.5156"/><text fill="#000000" font-family="sans-serif" font-size="13" lengthAdjust="spacing" textLength="136" x="49.5" y="149.3169">Goes to appointment</text><text fill="#000000" font-family="sans-serif" font-size="13" lengthAdjust="spacing" textLength="0" x="53.5" y="164.4497"/><polygon fill="#A80036" points="606.5,224.9141,616.5,228.9141,606.5,232.9141,610.5,228.9141" style="stroke:#A80036;stroke-width:1.0;"/><line style="stroke:#A80036;stroke-width:1.0;" x1="202.5" x2="612.5" y1="228.9141" y2="228.9141"/><text fill="#000000" font-family="sans-serif" font-size="13" lengthAdjust="spacing" textLength="155" x="209.5" y="193.5825">Get Patient's Medication</text><a href="ExampleScenario-example-8-scenario-resources.html#EB" target="_top" title="ExampleScenario-example-8-scenario-resources.html#EB" xlink:actuate="onRequest" xlink:href="ExampleScenario-example-8-scenario-resources.html#EB" xlink:show="new" xlink:title="ExampleScenario-example-8-scenario-resources.html#EB" xlink:type="simple"><text fill="#0000FF" font-family="sans-serif" font-size="13" lengthAdjust="spacing" text-decoration="underline" textLength="89" x="209.5" y="208.7153">Empty Bundle</text></a><text fill="#000000" font-family="sans-serif" font-size="13" lengthAdjust="spacing" textLength="0" x="213.5" y="223.8481"/><polygon fill="#A80036" points="606.5,284.3125,616.5,288.3125,606.5,292.3125,610.5,288.3125" style="stroke:#A80036;stroke-width:1.0;"/><line style="stroke:#A80036;stroke-width:1.0;" x1="202.5" x2="612.5" y1="288.3125" y2="288.3125"/><text fill="#000000" font-family="sans-serif" font-size="13" lengthAdjust="spacing" textLength="151" x="209.5" y="252.981">Create new prescription</text><a href="ExampleScenario-example-8-scenario-resources.html#" target="_top" title="ExampleScenario-example-8-scenario-resources.html#" xlink:actuate="onRequest" xlink:href="ExampleScenario-example-8-scenario-resources.html#" xlink:show="new" xlink:title="ExampleScenario-example-8-scenario-resources.html#" xlink:type="simple"><text fill="#0000FF" font-family="sans-serif" font-size="13" lengthAdjust="spacing" text-decoration="underline" textLength="355" x="209.5" y="268.1138">ExampleScenario-example-8-scenario-resources.html#</text></a><text fill="#000000" font-family="sans-serif" font-size="13" lengthAdjust="spacing" textLength="0" x="213.5" y="283.2466"/><line style="stroke:#A80036;stroke-width:1.0;" x1="618.5" x2="660.5" y1="347.7109" y2="347.7109"/><line style="stroke:#A80036;stroke-width:1.0;" x1="660.5" x2="660.5" y1="347.7109" y2="360.7109"/><line style="stroke:#A80036;stroke-width:1.0;" x1="619.5" x2="660.5" y1="360.7109" y2="360.7109"/><polygon fill="#A80036" points="629.5,356.7109,619.5,360.7109,629.5,364.7109,625.5,360.7109" style="stroke:#A80036;stroke-width:1.0;"/><text fill="#000000" font-family="sans-serif" font-size="13" lengthAdjust="spacing" textLength="141" x="625.5" y="312.3794">Create new treatment</text><a href="ExampleScenario-example-8-scenario-resources.html#" target="_top" title="ExampleScenario-example-8-scenario-resources.html#" xlink:actuate="onRequest" xlink:href="ExampleScenario-example-8-scenario-resources.html#" xlink:show="new" xlink:title="ExampleScenario-example-8-scenario-resources.html#" xlink:type="simple"><text fill="#0000FF" font-family="sans-serif" font-size="13" lengthAdjust="spacing" text-decoration="underline" textLength="355" x="625.5" y="327.5122">ExampleScenario-example-8-scenario-resources.html#</text></a><text fill="#000000" font-family="sans-serif" font-size="13" lengthAdjust="spacing" textLength="0" x="629.5" y="342.645"/><line style="stroke:#A80036;stroke-width:1.0;" x1="618.5" x2="660.5" y1="420.1094" y2="420.1094"/><line style="stroke:#A80036;stroke-width:1.0;" x1="660.5" x2="660.5" y1="420.1094" y2="433.1094"/><line style="stroke:#A80036;stroke-width:1.0;" x1="619.5" x2="660.5" y1="433.1094" y2="433.1094"/><polygon fill="#A80036" points="629.5,429.1094,619.5,433.1094,629.5,437.1094,625.5,433.1094" style="stroke:#A80036;stroke-width:1.0;"/><text fill="#000000" font-family="sans-serif" font-size="13" lengthAdjust="spacing" textLength="171" x="625.5" y="384.7778">Create new treatment Line</text><a href="ExampleScenario-example-8-scenario-resources.html#" target="_top" title="ExampleScenario-example-8-scenario-resources.html#" xlink:actuate="onRequest" xlink:href="ExampleScenario-example-8-scenario-resources.html#" xlink:show="new" xlink:title="ExampleScenario-example-8-scenario-resources.html#" xlink:type="simple"><text fill="#0000FF" font-family="sans-serif" font-size="13" lengthAdjust="spacing" text-decoration="underline" textLength="355" x="625.5" y="399.9106">ExampleScenario-example-8-scenario-resources.html#</text></a><text fill="#000000" font-family="sans-serif" font-size="13" lengthAdjust="spacing" textLength="0" x="629.5" y="415.0435"/><polygon fill="#A80036" points="629.5,488.5078,619.5,492.5078,629.5,496.5078,625.5,492.5078" style="stroke:#A80036;stroke-width:1.0;"/><line style="stroke:#A80036;stroke-width:1.0;" x1="623.5" x2="996.5" y1="492.5078" y2="492.5078"/><text fill="#000000" font-family="sans-serif" font-size="13" lengthAdjust="spacing" textLength="168" x="635.5" y="457.1763">Get patient's Prescriptions</text><a href="ExampleScenario-example-8-scenario-resources.html#EB" target="_top" title="ExampleScenario-example-8-scenario-resources.html#EB" xlink:actuate="onRequest" xlink:href="ExampleScenario-example-8-scenario-resources.html#EB" xlink:show="new" xlink:title="ExampleScenario-example-8-scenario-resources.html#EB" xlink:type="simple"><text fill="#0000FF" font-family="sans-serif" font-size="13" lengthAdjust="spacing" text-decoration="underline" textLength="89" x="635.5" y="472.3091">Empty Bundle</text></a><text fill="#000000" font-family="sans-serif" font-size="13" lengthAdjust="spacing" textLength="0" x="639.5" y="487.4419"/><polygon fill="#A80036" points="629.5,547.9063,619.5,551.9063,629.5,555.9063,625.5,551.9063" style="stroke:#A80036;stroke-width:1.0;"/><line style="stroke:#A80036;stroke-width:1.0;" x1="623.5" x2="996.5" y1="551.9063" y2="551.9063"/><text fill="#000000" font-family="sans-serif" font-size="13" lengthAdjust="spacing" textLength="59" x="635.5" y="516.5747">Dispense</text><a href="ExampleScenario-example-8-scenario-resources.html#" target="_top" title="ExampleScenario-example-8-scenario-resources.html#" xlink:actuate="onRequest" xlink:href="ExampleScenario-example-8-scenario-resources.html#" xlink:show="new" xlink:title="ExampleScenario-example-8-scenario-resources.html#" xlink:type="simple"><text fill="#0000FF" font-family="sans-serif" font-size="13" lengthAdjust="spacing" text-decoration="underline" textLength="355" x="635.5" y="531.7075">ExampleScenario-example-8-scenario-resources.html#</text></a><text fill="#000000" font-family="sans-serif" font-size="13" lengthAdjust="spacing" textLength="0" x="639.5" y="546.8403"/><polygon fill="#A80036" points="53.5,592.1719,43.5,596.1719,53.5,600.1719,49.5,596.1719" style="stroke:#A80036;stroke-width:1.0;"/><line style="stroke:#A80036;stroke-width:1.0;" x1="47.5" x2="273.5" y1="596.1719" y2="596.1719"/><text fill="#000000" font-family="sans-serif" font-size="13" lengthAdjust="spacing" textLength="136" x="59.5" y="575.9731">Starts Administration</text><text fill="#000000" font-family="sans-serif" font-size="13" lengthAdjust="spacing" textLength="0" x="63.5" y="591.106"/><polygon fill="#A80036" points="606.5,636.4375,616.5,640.4375,606.5,644.4375,610.5,640.4375" style="stroke:#A80036;stroke-width:1.0;"/><line style="stroke:#A80036;stroke-width:1.0;" x1="274.5" x2="612.5" y1="640.4375" y2="640.4375"/><text fill="#000000" font-family="sans-serif" font-size="13" lengthAdjust="spacing" textLength="320" x="281.5" y="620.2388">Report Adverse Reaction and stops administration</text><text fill="#000000" font-family="sans-serif" font-size="13" lengthAdjust="spacing" textLength="0" x="285.5" y="635.3716"/><!--MD5=[f7c96f2902b08ae27812f9e79fb5f9af]
@startuml


Title Change brand from prescription on dispense because of out of stock

actor "Pia Peters" as PATIENT
actor "Dr. Durant" as GP
actor "Nurse" as NU
participant "Vault" as VAULT
actor "Pharmacist" as PHARM

    
    
    
    
    PATIENT-> GP : Goes to appointment\n
    GP-> VAULT : Get Patient's Medication\n[[ExampleScenario-example-8-scenario-resources.html#EB Empty Bundle]]\n
    GP-> VAULT : Create new prescription\n[[ExampleScenario-example-8-scenario-resources.html#]]\n
    VAULT-> VAULT : Create new treatment\n[[ExampleScenario-example-8-scenario-resources.html#]]\n
    VAULT-> VAULT : Create new treatment Line\n[[ExampleScenario-example-8-scenario-resources.html#]]\n
    PHARM-> VAULT : Get patient's Prescriptions\n[[ExampleScenario-example-8-scenario-resources.html#EB Empty Bundle]]\n
    PHARM-> VAULT : Dispense\n[[ExampleScenario-example-8-scenario-resources.html#]]\n
    NU-> PATIENT : Starts Administration\n
    NU-> VAULT : Report Adverse Reaction and stops administration\n
  

@enduml

PlantUML version 1.2021.00(Sun Jan 10 10:25:05 UTC 2021)
(APACHE source distribution)
Java Runtime: OpenJDK Runtime Environment
JVM: OpenJDK 64-Bit Server VM
Default Encoding: UTF-8
Language: en
Country: null
--></g></svg>